<?xml version="1.0" standalone="no"?><!DOCTYPE svg PUBLIC "-//W3C//DTD SVG 1.1//EN" "http://www.w3.org/Graphics/SVG/1.1/DTD/svg11.dtd"><svg t="1590242145360" class="icon" viewBox="0 0 1024 1024" version="1.1" xmlns="http://www.w3.org/2000/svg" p-id="17289" xmlns:xlink="http://www.w3.org/1999/xlink" width="200" height="200"><defs><style type="text/css"></style></defs><path d="M873.90208 344.064l-193.50016-245.0688A31.4624 31.4624 0 0 0 655.69792 87.04H174.7968A31.3856 31.3856 0 0 0 143.36 118.3744v787.2512a31.3856 31.3856 0 0 0 31.4368 31.3344h674.4064a31.3856 31.3856 0 0 0 31.4368-31.3344V363.45344a31.232 31.232 0 0 0-6.73792-19.38944z m-186.76736-135.2192l97.32608 123.264h-97.32608V208.86016zM206.2336 874.2912V149.7088h418.03264v213.74464a31.38048 31.38048 0 0 0 31.43168 31.3344h162.06848v479.50336H206.2336z" fill="#3B4552" p-id="17290"></path><path d="M502.784 383.85664H289.56672V321.13152H502.784v62.72512z m210.432 182.11328l-422.87616-2.49344 0.37888-62.74048 422.87616 2.49344z m-1.93536 180.86912l-422.87104-2.49344 0.3584-62.72512 422.912 2.49344z" fill="#FF960B" p-id="17291"></path></svg>