<?xml version="1.0" standalone="no"?><!DOCTYPE svg PUBLIC "-//W3C//DTD SVG 1.1//EN" "http://www.w3.org/Graphics/SVG/1.1/DTD/svg11.dtd"><svg t="1590917993180" class="icon" viewBox="0 0 1024 1024" version="1.1" xmlns="http://www.w3.org/2000/svg" p-id="3616" xmlns:xlink="http://www.w3.org/1999/xlink" width="200" height="200"><defs><style type="text/css"></style></defs><path d="M512 96C283.202 96 96 283.202 96 512c0 228.796 187.202 416 416 416 228.796 0 416-187.204 416-416C928 283.202 740.798 96 512 96zM512 844.798c-183.038 0-332.798-149.764-332.798-332.798 0-183.034 149.762-332.8 332.798-332.8C695.036 179.2 844.8 328.964 844.8 512 844.8 695.036 695.036 844.798 512 844.798z" p-id="3617"></path><path d="M816.414 552.586 207.586 552.586l0-81.174 608.828 0L816.414 552.586z" p-id="3618"></path></svg>